<svg xmlns="http://www.w3.org/2000/svg" width="24.533" height="20.473" viewBox="0 0 24.533 20.473">
  <path id="Path_12" data-name="Path 12" d="M5.5,14.9v3.3a2.36,2.36,0,0,0,1.22,2.065l5.867,3.2a2.33,2.33,0,0,0,2.253,0l5.867-3.2a2.36,2.36,0,0,0,1.22-2.065V14.9l-7.087,3.872a2.33,2.33,0,0,1-2.253,0ZM12.592,3.562,2.7,8.959a1.182,1.182,0,0,0,0,2.065l9.892,5.4a2.33,2.33,0,0,0,2.253,0l9.434-5.151v6.935a1.173,1.173,0,1,0,2.347,0V10.684a1.18,1.18,0,0,0-.61-1.033L14.845,3.562a2.394,2.394,0,0,0-2.253,0Z" transform="translate(-2.092 -3.28)" fill="#fff"/>
</svg>
