<svg xmlns="http://www.w3.org/2000/svg" width="31" height="27" viewBox="0 0 31 27">
  <path id="Path_21" data-name="Path 21" d="M29.9,4H5.1A3.243,3.243,0,0,0,2.016,7.375L2,27.625A3.256,3.256,0,0,0,5.1,31H29.9A3.256,3.256,0,0,0,33,27.625V7.375A3.256,3.256,0,0,0,29.9,4Zm-.62,7.172L18.322,18.631a1.46,1.46,0,0,1-1.643,0L5.72,11.172A1.477,1.477,0,0,1,5.1,9.957,1.317,1.317,0,0,1,7.115,8.742L17.5,15.813,27.885,8.742A1.317,1.317,0,0,1,29.9,9.957,1.477,1.477,0,0,1,29.28,11.172Z" transform="translate(-2 -4)" fill="#f90"/>
</svg>
