<svg xmlns="http://www.w3.org/2000/svg" width="28.964" height="28.964" viewBox="0 0 28.964 28.964">
  <path id="Path_19" data-name="Path 19" d="M29.152,22.761l-4.1-.468a3.21,3.21,0,0,0-2.644.919l-2.967,2.967A24.258,24.258,0,0,1,8.821,15.554L11.8,12.571a3.21,3.21,0,0,0,.919-2.644l-.468-4.063A3.227,3.227,0,0,0,9.046,3.01H6.257A3.2,3.2,0,0,0,3.032,6.348a27.4,27.4,0,0,0,25.62,25.62,3.2,3.2,0,0,0,3.338-3.225V25.954A3.2,3.2,0,0,0,29.152,22.761Z" transform="translate(-3.026 -3.01)" fill="#f90"/>
</svg>
