<svg xmlns="http://www.w3.org/2000/svg" width="20.433" height="19.412" viewBox="0 0 20.433 19.412">
  <path id="Path_14" data-name="Path 14" d="M20.39,7.087H16.3V5.043A2.058,2.058,0,0,0,14.26,3H10.173A2.049,2.049,0,0,0,8.13,5.043V7.087H4.043A2.049,2.049,0,0,0,2,9.13V20.368a2.049,2.049,0,0,0,2.043,2.043H20.39a2.049,2.049,0,0,0,2.043-2.043V9.13A2.049,2.049,0,0,0,20.39,7.087ZM10.173,5.043H14.26V7.087H10.173Zm.511,13.282a.715.715,0,0,1,0-1.022l2.554-2.554L10.684,12.2a.722.722,0,1,1,1.022-1.022l3.218,3.218a.506.506,0,0,1,0,.725l-3.218,3.208A.715.715,0,0,1,10.684,18.325Z" transform="translate(-2 -3)" fill="#fff"/>
</svg>
